Coordinates
version=1
nRows=22
nColumns=24
inDegrees=yes

Units are S.I. units (second, meters, Newtons, ...)
Angles are in degrees.

endheader
time	pelvis_tilt	pelvis_list	pelvis_rotation	pelvis_tx	pelvis_ty	pelvis_tz	hip_flexion_r	hip_adduction_r	hip_rotation_r	knee_angle_r	ankle_angle_r	subtalar_angle_r	mtp_angle_r	hip_flexion_l	hip_adduction_l	hip_rotation_l	knee_angle_l	ankle_angle_l	subtalar_angle_l	mtp_angle_l	lumbar_extension	lumbar_bending	lumbar_rotation
      0.55800000	      1.97225116	      2.59229213	      1.11888828	     -0.79034415	      0.99531088	      0.23438060	     20.85840450	     -1.29236179	     -3.97354744	      0.56581372	      5.64173690	    -11.09857356	      9.32389606	    -21.75550076	      4.49300916	      5.16682869	     -4.46475115	     10.91086654	    -10.10196344	      3.07763337	     -4.55038658	     -4.22603324	     -4.27095404
      0.56216667	      1.97028808	      2.51938988	      1.19245920	     -0.78410373	      0.99476350	      0.23473685	     20.86495780	     -1.20001787	     -3.71286712	      0.15522830	      5.67166795	    -11.34671415	      9.32957614	    -21.82273002	      4.35541415	      5.12172482	     -5.06202241	     10.94255640	     -9.87389930	      3.12955910	     -4.49815850	     -4.11642661	     -4.40421269
      0.56633333	      1.97677509	      2.42676728	      1.27113678	     -0.77779945	      0.99426653	      0.23509056	     20.84760323	     -1.08502484	     -3.44905671	     -0.28137694	      5.64391224	    -11.63117531	      9.34598610	    -21.87753045	      4.19436968	      5.04456346	     -5.70582823	     10.97332894	     -9.59129763	      3.21397176	     -4.44553423	     -3.97689211	     -4.51333216
      0.57050000	      1.98706640	      2.31519870	      1.34636211	     -0.77142407	      0.99380531	      0.23545598	     20.81882114	     -0.94587254	     -3.19332548	     -0.75226305	      5.55084946	    -11.94288999	      9.38293709	    -21.92374948	      4.01337656	      4.93701931	     -6.37528696	     10.99526008	     -9.27474794	      3.36834422	     -4.38764737	     -3.80777538	     -4.60530231
      0.57466667	      1.98463677	      2.21633001	      1.42260785	     -0.76503019	      0.99335818	      0.23584120	     20.79661399	     -0.81586686	     -2.90920714	     -1.24564483	      5.42288766	    -12.28688052	      9.42205248	    -21.92497688	      3.84632560	      4.83024725	     -7.10508364	     10.96401759	     -9.00108116	      3.51719535	     -4.31540119	     -3.66857081	     -4.71777230
      0.57883333	      1.99257409	      2.08592259	      1.49563103	     -0.75855719	      0.99295035	      0.23622310	     20.75837728	     -0.64888636	     -2.64495663	     -1.77020247	      5.26331962	    -12.65883597	      9.46310002	    -21.93082461	      3.64850487	      4.71367826	     -7.85275084	     10.96036838	     -8.71947851	      3.66756246	     -4.23377573	     -3.46651809	     -4.81305658
      0.58300000	      2.00227338	      1.95837918	      1.56937607	     -0.75206768	      0.99258492	      0.23664070	     20.70203190	     -0.47978842	     -2.37049412	     -2.28224088	      4.96778588	    -13.06146472	      9.52221376	    -21.89454397	      3.44529663	      4.51519875	     -8.67857799	     10.86789781	     -8.33862359	      3.88359504	     -4.17211975	     -3.29911610	     -4.90144220
      0.58716667	      2.01513061	      1.82546174	      1.63621994	     -0.74554841	      0.99223127	      0.23706276	     20.67023328	     -0.30443450	     -2.18669450	     -2.87475081	      4.73029483	    -13.34073970	     10.73952182	    -21.82597379	      3.23209199	      4.23430116	     -9.56763075	     10.77187911	     -7.88854615	      8.18307653	     -4.09794535	     -3.11248744	     -4.89060085
      0.59133333	      2.04149014	      1.67563311	      1.70428093	     -0.73897021	      0.99196494	      0.23750098	     20.57092649	     -0.10276359	     -1.89900443	     -3.37846076	      4.30651301	    -13.83834098	     10.74179107	    -21.78747283	      3.01219674	      4.09764630	    -10.42631604	     10.56563779	     -7.68687422	      8.25020844	     -4.03895427	     -2.90473565	     -5.04432830
      0.59550000	      2.03412391	      1.51609791	      1.76468251	     -0.73234470	      0.99167598	      0.23795543	     20.52909878	      0.11002095	     -1.67929589	     -3.94309361	      3.89596750	    -14.23909660	     10.75402616	    -21.67303402	      2.77747209	      3.86512032	    -11.35952923	     10.38998237	     -7.32786557	      8.35575513	     -3.92236850	     -2.68370853	     -5.10071018
      0.59966667	      2.08636881	      1.37233911	      1.81718632	     -0.72578701	      0.99147844	      0.23846091	     20.42562753	      0.31483675	     -1.43521827	     -4.51475018	      3.48896951	    -14.69262384	     10.78917252	    -21.55741599	      2.54637385	      3.53094197	    -12.41451653	     10.23333733	     -6.82727062	      8.59087375	     -3.89204283	     -2.49308166	     -5.14821219
      0.60383333	      2.09034927	      1.21246133	      1.86566763	     -0.71916236	      0.99126137	      0.23896691	     20.37748868	      0.53495822	     -1.23632822	     -5.10692100	      3.04378341	    -15.08503120	     10.83380464	    -21.38337857	      2.30305284	      3.22986085	    -13.47536349	      9.98071145	     -6.41844293	      8.89170614	     -3.79240556	     -2.27727394	     -5.18745914
      0.60800000	      2.09636506	      1.04748967	      1.91769901	     -0.71252484	      0.99108946	      0.23947840	     20.31389940	      0.75883996	     -1.05787283	     -5.67815353	      2.58196950	    -15.43201961	     10.87972951	    -21.16619822	      2.04665942	      2.89831208	    -14.61671613	      9.68371349	     -5.99733817	      9.21973564	     -3.67899800	     -2.05232066	     -5.21677190
      0.61216667	      2.12707823	      0.87568222	      1.94693865	     -0.70592930	      0.99095221	      0.24004436	     20.25937747	      0.99817710	     -0.89844342	     -6.32370116	      2.14002791	    -15.78294436	     10.93747601	    -20.94651112	      1.78039040	      2.52479336	    -15.80820824	      9.37225741	     -5.52062016	      9.67159202	     -3.62338253	     -1.82745884	     -5.23001539
      0.61633333	      2.16444796	      0.69593673	      1.97473586	     -0.69930651	      0.99087990	      0.24061752	     20.17743182	      1.24464890	     -0.75448917	     -6.93062146	      1.66802357	    -16.09422984	     11.77563079	    -20.71123084	      1.49824172	      2.14069153	    -17.01268255	      8.83741043	     -5.21146516	     16.86556853	     -3.55817306	     -1.58820471	     -5.20668718
      0.62050000	      2.17388958	      0.52612285	      1.99802990	     -0.69272917	      0.99078014	      0.24120153	     20.16311377	      1.47588444	     -0.67469825	     -7.61987283	      1.29991101	    -16.27317763	     11.76566158	    -20.39648289	      1.22448673	      1.75463553	    -18.32076350	      8.41315244	     -4.78035657	     16.93468678	     -3.46365999	     -1.36407489	     -5.22705143
      0.62466667	      2.18571054	      0.35504999	      2.01050914	     -0.68617352	      0.99071977	      0.24182394	     20.14482924	      1.71344751	     -0.57712771	     -8.30676697	      0.92508381	    -16.48246107	     11.75399810	    -20.04786691	      0.94234865	      1.34911618	    -19.68192936	      7.92257097	     -4.34580286	     17.06989848	     -3.37574140	     -1.13886666	     -5.20788271
      0.62883333	      2.20515359	      0.17720948	      2.01701884	     -0.67964142	      0.99069975	      0.24246454	     20.11332467	      1.95767495	     -0.49253921	     -8.98404864	      0.59003881	    -16.62044834	     11.74152857	    -19.67271109	      0.64304305	      0.92090101	    -21.09446694	      7.34031539	     -3.93262000	     17.23227205	     -3.28968222	     -0.90993693	     -5.17822689
      0.63300000	      2.21992626	      0.00502502	      2.01676907	     -0.67317091	      0.99069470	      0.24313119	     20.10892016	      2.19623181	     -0.43035691	     -9.70794388	      0.30338155	    -16.74820800	     11.72530280	    -19.24946840	      0.34384520	      0.50480178	    -22.57146044	      6.74690613	     -3.52561135	     17.43165696	     -3.21363019	     -0.68910466	     -5.14261696
      0.63716667	      2.24870148	     -0.16614027	      2.00332024	     -0.66677071	      0.99070207	      0.24382710	     20.11545600	      2.43632369	     -0.39149803	    -10.48380264	      0.05968156	    -16.87157994	     11.69772011	    -18.80745613	      0.03629492	      0.06870489	    -24.10267045	      6.14911155	     -3.09194561	     17.73174977	     -3.17104131	     -0.46255198	     -5.09357191
      0.64133333	      2.26197894	     -0.33604746	      1.99036683	     -0.66039303	      0.99073852	      0.24453510	     20.12612313	      2.67284872	     -0.35983627	    -11.23757104	     -0.13380635	    -16.93405849	     11.66222031	    -18.31589610	     -0.27822767	     -0.35010477	    -25.67020430	      5.46027574	     -2.72530825	     18.06889664	     -3.10248105	     -0.24580511	     -5.04124877
      0.64550000	      2.29099976	     -0.50672771	      1.97059306	     -0.65404966	      0.99082636	      0.24525478	     20.10153118	      2.91168675	     -0.31848308	    -11.95419784	     -0.26523042	    -16.92708725	     11.62954333	    -17.82050021	     -0.59583341	     -0.74172486	    -27.25669253	      4.67777337	     -2.44962364	     18.33300596	     -3.04624386	     -0.03311712	     -4.98761646
